# xmcd
# 
# Track frame offsets:
#     150
#     14065
#     26722
#     35070
#     47417
#     61815
#     70662
#     84812
#     94817
#     112897
#     127057
#     138230
# 
# Disc length: 1986
# 
# Revision: 6
# Processed by: cddbd v1.5.2PL0 Copyright (c) Steve Scherf et al.
# Submitted via: fre:ac v1.0.27
# 
DISCID=9a07c00c
DTITLE=BRASSENS, Georges 3 - Georges Brassens III
DYEAR=1956
DGENRE=Française
TTITLE0=Chanson Pour L'Auvergnat
TTITLE1=Les Sabots D'Hélène
TTITLE2=Marinette
TTITLE3=Une Jolie Fleur
TTITLE4=La Légende De La Nonne
TTITLE5=Colombine
TTITLE6=Auprès De Mon Arbre
TTITLE7=Gastibelza
TTITLE8=Le Testament
TTITLE9=La Prière
TTITLE10=Le Nombril Des Femmes D'agents
TTITLE11=Les Croquants
EXTD=YEAR: 1956
EXTT0=
EXTT1=
EXTT2=
EXTT3=
EXTT4=
EXTT5=
EXTT6=
EXTT7=
EXTT8=
EXTT9=
EXTT10=
EXTT11=
PLAYORDER=
